<svg width="686" height="760" viewBox="0 0 686 760" fill="none" xmlns="http://www.w3.org/2000/svg">
<g opacity="0.5">
<path d="M671.615 496.615L584.154 409.154" stroke="#505685"/>
<path d="M759.077 409.154L671.615 321.692" stroke="url(#paint0_linear_3_125)"/>
<path d="M584.154 409.154L671.615 321.692" stroke="#505685"/>
<path d="M671.615 496.615L759.077 409.154" stroke="#505685"/>
<path d="M584.154 409.154L467.538 292.538" stroke="#505685"/>
<path d="M671.615 321.692L555 205.077" stroke="url(#paint1_linear_3_125)"/>
<path d="M467.538 292.538L555 205.077" stroke="#505685"/>
<path d="M584.154 409.154L671.615 321.692" stroke="url(#paint2_linear_3_125)"/>
<path d="M350.923 1L438.384 88.4615" stroke="#505685"/>
<path d="M263.461 88.4615L350.923 175.923" stroke="#505685"/>
<path d="M438.384 88.4615L350.923 175.923" stroke="#505685"/>
<path d="M350.923 1L263.461 88.4615" stroke="#505685"/>
<path d="M438.384 88.4615L555 205.077" stroke="url(#paint3_linear_3_125)"/>
<path d="M350.923 175.923L467.538 292.538" stroke="#505685"/>
<path d="M438.384 88.4615L350.923 175.923" stroke="#505685"/>
<path d="M467.538 292.538L555 380" stroke="#505685"/>
<path d="M380.077 380L467.538 467.461" stroke="#505685"/>
<path d="M555 380L467.538 467.461" stroke="#505685"/>
<path d="M555 380L671.615 496.615" stroke="#505685"/>
<path d="M467.538 467.461L584.154 584.077" stroke="#505685"/>
<path d="M671.615 496.615L584.154 584.077" stroke="url(#paint4_linear_3_125)"/>
<path d="M555 380L467.538 467.461" stroke="#505685"/>
<path d="M380.077 380L292.615 292.538" stroke="#505685"/>
<path d="M467.538 292.538L380.077 205.077" stroke="#505685"/>
<path d="M292.615 292.538L380.077 205.077" stroke="#505685"/>
<path d="M292.615 292.538L176 175.923" stroke="#505685"/>
<path d="M380.077 205.077L263.462 88.4615" stroke="#505685"/>
<path d="M176 175.923L263.461 88.4615" stroke="url(#paint5_linear_3_125)"/>
<path d="M292.615 292.538L380.077 205.077" stroke="#505685"/>
<path d="M496.615 671.539L409.154 584.077" stroke="#505685"/>
<path d="M584.077 584.077L496.615 496.615" stroke="#505685"/>
<path d="M409.154 584.077L496.615 496.615" stroke="#505685"/>
<path d="M496.615 671.539L584.077 584.077" stroke="#505685"/>
<path d="M409.154 584.077L292.538 467.462" stroke="#505685"/>
<path d="M496.615 496.615L380 380" stroke="#505685"/>
<path d="M292.538 467.462L380 380" stroke="#505685"/>
<path d="M409.154 584.077L496.615 496.615" stroke="url(#paint6_linear_3_125)"/>
<path d="M175.923 175.923L263.385 263.385" stroke="#505685"/>
<path d="M88.4617 263.385L175.923 350.846" stroke="#505685"/>
<path d="M263.385 263.385L175.923 350.846" stroke="#505685"/>
<path d="M175.923 175.923L88.4616 263.385" stroke="#505685"/>
<path d="M263.385 263.385L380 380" stroke="url(#paint7_linear_3_125)"/>
<path d="M175.923 350.846L292.539 467.462" stroke="#505685"/>
<path d="M263.385 263.385L175.923 350.846" stroke="#505685"/>
<path d="M292.539 467.462L380 554.923" stroke="#505685"/>
<path d="M205.077 554.923L292.539 642.385" stroke="#505685"/>
<path d="M380 554.923L292.539 642.385" stroke="#505685"/>
<path d="M380 554.923L496.616 671.539" stroke="url(#paint8_linear_3_125)"/>
<path d="M292.539 642.385L409.154 759" stroke="url(#paint9_linear_3_125)"/>
<path d="M496.615 671.538L409.154 759" stroke="#505685"/>
<path d="M380 554.923L292.539 642.385" stroke="#505685"/>
<path d="M205.077 554.923L117.615 467.462" stroke="#505685"/>
<path d="M292.539 467.462L205.077 380" stroke="#505685"/>
<path d="M117.615 467.462L205.077 380" stroke="#505685"/>
<path d="M117.615 467.462L1.00008 350.846" stroke="#505685"/>
<path d="M205.077 380L88.4616 263.385" stroke="#505685"/>
<path d="M1.00012 350.846L88.4616 263.385" stroke="#505685"/>
<path d="M117.615 467.462L205.077 380" stroke="url(#paint10_linear_3_125)"/>
</g>
<defs>
<linearGradient id="paint0_linear_3_125" x1="759.077" y1="386.636" x2="699.135" y2="347.071" gradientUnits="userSpaceOnUse">
<stop stop-color="#505685"/>
<stop offset="1" stop-color="#FF6B00"/>
</linearGradient>
<linearGradient id="paint1_linear_3_125" x1="670.12" y1="321.692" x2="530.631" y2="264.135" gradientUnits="userSpaceOnUse">
<stop stop-color="#FF6B00"/>
<stop offset="1" stop-color="#505685"/>
</linearGradient>
<linearGradient id="paint2_linear_3_125" x1="606.672" y1="409.154" x2="646.237" y2="349.212" gradientUnits="userSpaceOnUse">
<stop stop-color="#505685"/>
<stop offset="1" stop-color="#FF6B00"/>
</linearGradient>
<linearGradient id="paint3_linear_3_125" x1="438.384" y1="118.486" x2="518.306" y2="171.239" gradientUnits="userSpaceOnUse">
<stop stop-color="#505685"/>
<stop offset="0.421875" stop-color="#FF6B00"/>
<stop offset="1" stop-color="#505685"/>
</linearGradient>
<linearGradient id="paint4_linear_3_125" x1="649.097" y1="496.615" x2="609.532" y2="556.557" gradientUnits="userSpaceOnUse">
<stop stop-color="#505685"/>
<stop offset="0.0001" stop-color="#505685"/>
<stop offset="0.317708" stop-color="#FF6B00"/>
<stop offset="1" stop-color="#505685"/>
</linearGradient>
<linearGradient id="paint5_linear_3_125" x1="176" y1="175.923" x2="218.765" y2="70.3552" gradientUnits="userSpaceOnUse">
<stop stop-color="#505685"/>
<stop offset="0.494792" stop-color="#FF6B00"/>
<stop offset="1" stop-color="#505685"/>
</linearGradient>
<linearGradient id="paint6_linear_3_125" x1="431.672" y1="584.077" x2="471.237" y2="524.135" gradientUnits="userSpaceOnUse">
<stop stop-color="#FF6B00"/>
<stop offset="0.234375" stop-color="#505685"/>
</linearGradient>
<linearGradient id="paint7_linear_3_125" x1="292.913" y1="293.286" x2="395.908" y2="335.272" gradientUnits="userSpaceOnUse">
<stop stop-color="#505685"/>
<stop offset="0.75" stop-color="#FF6B00"/>
<stop offset="1" stop-color="#505685"/>
</linearGradient>
<linearGradient id="paint8_linear_3_125" x1="380" y1="584.947" x2="459.922" y2="637.701" gradientUnits="userSpaceOnUse">
<stop stop-color="#505685"/>
<stop offset="0.0001" stop-color="#505685"/>
<stop offset="0.317708" stop-color="#FF6B00"/>
<stop offset="1" stop-color="#505685"/>
</linearGradient>
<linearGradient id="paint9_linear_3_125" x1="292.539" y1="672.409" x2="372.461" y2="725.162" gradientUnits="userSpaceOnUse">
<stop stop-color="#505685"/>
<stop offset="0.0001" stop-color="#505685"/>
<stop offset="0.317708" stop-color="#FF6B00"/>
<stop offset="1" stop-color="#505685"/>
</linearGradient>
<linearGradient id="paint10_linear_3_125" x1="117.615" y1="467.462" x2="160.381" y2="361.894" gradientUnits="userSpaceOnUse">
<stop stop-color="#505685"/>
<stop offset="0.0582928" stop-color="#FF6B00"/>
<stop offset="1" stop-color="#505685"/>
</linearGradient>
</defs>
</svg>
