<?xml version="1.0" encoding="UTF-8" standalone="no"?>
<!-- Created with Inkscape (http://www.inkscape.org/) -->

<svg
   width="205.10364mm"
   height="45.945881mm"
   viewBox="0 0 205.10364 45.94588"
   version="1.1"
   id="svg509"
   inkscape:version="1.2 (dc2aedaf03, 2022-05-15)"
   sodipodi:docname="LgAcosLab.svg"
   xmlns:inkscape="http://www.inkscape.org/namespaces/inkscape"
   xmlns:sodipodi="http://sodipodi.sourceforge.net/DTD/sodipodi-0.dtd"
   xmlns="http://www.w3.org/2000/svg"
   xmlns:svg="http://www.w3.org/2000/svg">
  <sodipodi:namedview
     id="namedview511"
     pagecolor="#ffffff"
     bordercolor="#000000"
     borderopacity="0.25"
     inkscape:showpageshadow="2"
     inkscape:pageopacity="0.0"
     inkscape:pagecheckerboard="0"
     inkscape:deskcolor="#d1d1d1"
     inkscape:document-units="mm"
     showgrid="false"
     inkscape:zoom="0.40518993"
     inkscape:cx="299.85938"
     inkscape:cy="167.82253"
     inkscape:window-width="1366"
     inkscape:window-height="719"
     inkscape:window-x="0"
     inkscape:window-y="20"
     inkscape:window-maximized="1"
     inkscape:current-layer="g3060" />
  <defs
     id="defs506" />
  <g
     inkscape:label="Layer 1"
     inkscape:groupmode="layer"
     id="layer1"
     transform="translate(-2.744371,-106.05436)">
    <g
       id="g3060">
      <g
         id="g1477"
         transform="matrix(1.4591911,0,0,1.6160171,107.51081,-93.784621)">
        <path
           d="m -42.605497,124.20813 -4.777494,-0.54113 c -0.141375,-0.021 -0.282796,0.021 -0.339319,0.065 l -2.03544,2.03477 c -0.141286,0.12976 -0.169525,0.30288 -0.113002,0.45457 0.05652,0.15144 -0.113136,0.2812 -0.310946,0.25986 l -1.668006,-0.28154 c -0.254422,-0.0434 -0.537084,0.021 -0.706735,0.19481 l -6.615029,6.49386 c -0.113137,0.12976 -0.33932,0.17313 -0.53709,0.10842 l -2.516036,-0.86587 c -0.226138,-0.0864 -0.480588,-0.0651 -0.678469,0.0434 l -1.272136,0.67103 c -0.197899,0.10807 -0.480588,0.12976 -0.706735,0.0434 l -0.621933,-0.23818 c -0.395798,-0.15144 -0.876359,0.021 -0.989442,0.34625 l -0.452309,1.53687 c -0.113091,0.36793 0.08481,0.73598 0.508855,0.93075 l 0.961162,0.45464 3.081392,1.45027 1.498283,0.71429 c 0.424038,0.19481 0.961212,0.15145 1.328646,-0.0864 l 2.516014,-1.68845 c 0.197899,-0.12976 0.508832,-0.17313 0.734993,-0.0651 l 0.763245,0.30324 c 0.254512,0.10807 0.565458,0.065 0.763362,-0.0867 l 1.272078,-0.90907 c 0.197899,-0.15144 0.508827,-0.17313 0.734988,-0.0867 l 1.894166,0.6711 c 0.282662,0.10807 0.621852,0.0434 0.819756,-0.15144 l 0.876382,-0.86581 6.643291,-6.51555 c 0.311036,-0.30288 0.113136,-0.75759 -0.395709,-0.84419 l -1.470097,-0.25986 c -0.310946,-0.0434 -0.452318,-0.34625 -0.226184,-0.51952 l 2.289858,-2.18625 c 0.226183,-0.25986 0.0849,-0.54116 -0.254423,-0.58446 z"
           fill="#e1e1e6"
           id="path127"
           style="fill:#000000;fill-opacity:1;stroke-width:1.04595" />
        <path
           d="m -64.5169,137.32481 c -0.141331,-0.0651 -0.282707,0.0434 -0.226139,0.15144 l 0.706736,1.4287 c 0.05652,0.10807 0.05652,0.21649 0.02815,0.32456 l -0.621932,1.86151 c -0.02815,0.1301 0.02815,0.25986 0.141331,0.32457 l 1.780985,1.06068 c 0.169615,0.0867 0.395754,0.0867 0.537125,-0.021 l 1.865788,-1.25546 c 0.113092,-0.0651 0.254423,-0.10808 0.367559,-0.12976 l 2.120207,-0.17313 c 0.141286,-0.021 0.197899,-0.17312 0.05652,-0.23818 z"
           fill="#e1e1e6"
           id="path129"
           style="fill:#000000;fill-opacity:1;stroke-width:1.04595" />
        <path
           d="m -65.138748,142.1325 c -0.113091,-0.065 -0.282706,-0.0867 -0.424037,-0.0434 l -1.498283,0.56282 c -0.08481,0.021 -0.141376,0.0864 -0.1979,0.15144 l -3.194461,6.0393 c 0,0.021 0,0.021 0,0.0434 0.02815,0.021 0.05652,0.0434 0.113092,0.0434 l 0.735002,-0.2165 c 0.02815,0 0.05652,0 0.08481,0 0.02815,0.021 0.05652,0.0651 0.02815,0.0864 l -2.289835,2.87896 c -0.05652,0.065 0.05652,0.12976 0.113092,0.065 l 8.282994,-6.364 c 0.08481,-0.0651 0.113092,-0.12976 0.141331,-0.2165 l 0.169615,-1.64511 c 0,-0.10807 -0.05657,-0.19481 -0.141331,-0.25986 z"
           fill="#e1e1e6"
           id="path131"
           style="fill:#000000;fill-opacity:1;stroke-width:1.04595" />
      </g>
      <text
         xml:space="preserve"
         style="font-size:35.6306px;font-family:'Neon Zone';-inkscape-font-specification:'Neon Zone';fill:#000000;stroke-width:0.264583"
         x="32.130699"
         y="148.52069"
         id="text515"><tspan
           sodipodi:role="line"
           id="tspan513"
           style="stroke-width:0.264583"
           x="32.130699"
           y="148.52069">acos lab</tspan></text>
    </g>
  </g>
</svg>
