<?xml version="1.0" encoding="UTF-8" standalone="no"?>
<svg
   width="237"
   height="34"
   fill="none"
   viewBox="0 0 237 34"
   version="1.1"
   id="svg1084"
   sodipodi:docname="RocketSeatLab.svg"
   xml:space="preserve"
   inkscape:version="1.2 (dc2aedaf03, 2022-05-15)"
   xmlns:inkscape="http://www.inkscape.org/namespaces/inkscape"
   xmlns:sodipodi="http://sodipodi.sourceforge.net/DTD/sodipodi-0.dtd"
   xmlns="http://www.w3.org/2000/svg"
   xmlns:svg="http://www.w3.org/2000/svg"><defs
     id="defs1088" /><sodipodi:namedview
     id="namedview1086"
     pagecolor="#ffffff"
     bordercolor="#000000"
     borderopacity="0.25"
     inkscape:showpageshadow="2"
     inkscape:pageopacity="0.0"
     inkscape:pagecheckerboard="0"
     inkscape:deskcolor="#d1d1d1"
     showgrid="false"
     inkscape:zoom="2.1325538"
     inkscape:cx="137.15949"
     inkscape:cy="-1.8756854"
     inkscape:window-width="1366"
     inkscape:window-height="719"
     inkscape:window-x="0"
     inkscape:window-y="20"
     inkscape:window-maximized="1"
     inkscape:current-layer="svg1084" /><path
     fill="#c4c4cc"
     d="m 159.74599,23.650756 h -2.283 v 4.53 h -2.048 v -11.78 h 4.143 c 1.36,0 2.408,0.306 3.149,0.915 0.74,0.61 1.108,1.493 1.108,2.648 0,0.787 -0.19,1.449 -0.57,1.98 -0.38,0.532 -0.911,0.94 -1.59,1.226 l 2.646,4.906 v 0.106 h -2.194 l -2.364,-4.531 z m -2.283,-1.65 h 2.105 c 0.691,0 1.229,-0.176 1.619,-0.524 0.39,-0.348 0.582,-0.824 0.582,-1.429 0,-0.604 -0.18,-1.12 -0.538,-1.466 -0.358,-0.345 -0.893,-0.523 -1.606,-0.533 h -2.162 v 3.951 z m 16.839,0.922 h -4.839 v 3.625 h 5.656 v 1.634 h -7.704 v -11.782 h 7.648 v 1.65 h -5.6 v 3.253 h 4.839 z m 10.737,2.517 h -4.565 l -0.955,2.744 h -2.127 l 4.452,-11.783 h 1.836 l 4.459,11.783 h -2.137 z m -3.99,-1.65 h 3.415 l -1.707,-4.89 z m 18.903,0.557 c -0.119,1.256 -0.583,2.238 -1.392,2.941 -0.81,0.703 -1.885,1.056 -3.228,1.056 -0.938,0 -1.764,-0.222 -2.48,-0.668 -0.715,-0.445 -1.266,-1.079 -1.656,-1.898 -0.387,-0.82 -0.589,-1.772 -0.607,-2.858 v -1.1 c 0,-1.11 0.198,-2.09 0.59,-2.937 0.392,-0.846 0.96,-1.5 1.695,-1.96 0.736,-0.458 1.587,-0.688 2.554,-0.688 1.301,0 2.347,0.353 3.139,1.057 0.792,0.703 1.254,1.7 1.385,2.99 h -2.039 c -0.096,-0.846 -0.343,-1.458 -0.74,-1.833 -0.397,-0.375 -0.977,-0.563 -1.745,-0.563 -0.89,0 -1.574,0.326 -2.05,0.977 -0.479,0.652 -0.721,1.605 -0.733,2.863 v 1.044 c 0,1.273 0.227,2.245 0.683,2.917 0.457,0.668 1.123,1.004 2.004,1.004 0.805,0 1.409,-0.18 1.814,-0.543 0.405,-0.363 0.661,-0.962 0.77,-1.804 h 2.038 z m 11.765,-6.295 h -3.674 v 10.132 h -2.031 v -10.132 h -3.642 v -1.652 h 9.347 v 1.65 z m 6.278,-1.651 h 2.039 v 8.262 c 0,1.127 -0.353,2.023 -1.057,2.687 -0.703,0.664 -1.633,0.995 -2.788,0.995 -1.229,0 -2.179,-0.311 -2.848,-0.93 -0.669,-0.62 -1.004,-1.484 -1.004,-2.59 h 2.038 c 0,0.627 0.156,1.096 0.467,1.412 0.31,0.316 0.76,0.474 1.347,0.474 0.55,0 0.989,-0.183 1.315,-0.545 0.326,-0.366 0.489,-0.867 0.489,-1.51 v -8.256 h 0.002 z m 12.193,8.748 c 0,-0.518 -0.183,-0.918 -0.545,-1.197 -0.363,-0.279 -1.022,-0.563 -1.972,-0.849 -0.95,-0.286 -1.705,-0.604 -2.265,-0.955 -1.074,-0.674 -1.612,-1.555 -1.612,-2.638 0,-0.95 0.388,-1.732 1.163,-2.347 0.774,-0.614 1.779,-0.922 3.015,-0.922 0.819,0 1.55,0.15 2.194,0.454 a 3.597,3.597 0 0 1 1.513,1.29 c 0.367,0.558 0.55,1.177 0.55,1.858 h -2.038 c 0,-0.614 -0.193,-1.095 -0.578,-1.443 -0.385,-0.348 -0.938,-0.524 -1.656,-0.524 -0.668,0 -1.189,0.144 -1.557,0.43 -0.37,0.286 -0.555,0.686 -0.555,1.197 0,0.432 0.2,0.792 0.6,1.08 0.399,0.29 1.056,0.57 1.974,0.842 0.918,0.271 1.653,0.582 2.208,0.93 0.556,0.348 0.963,0.748 1.222,1.197 0.259,0.452 0.387,0.977 0.387,1.582 0,0.982 -0.375,1.762 -1.127,2.342 -0.753,0.58 -1.775,0.87 -3.063,0.87 a 5.755,5.755 0 0 1 -2.352,-0.473 c -0.715,-0.316 -1.27,-0.75 -1.668,-1.308 -0.397,-0.555 -0.594,-1.204 -0.594,-1.942 h 2.048 c 0,0.669 0.222,1.187 0.664,1.555 0.441,0.367 1.075,0.55 1.902,0.55 0.713,0 1.246,-0.143 1.607,-0.432 0.357,-0.288 0.538,-0.671 0.538,-1.145 z"
     id="path1080" /><path
     fill="#00b37e"
     d="m 150.271,33.146 h -4.958 V 7.4969363 h 4.958 z"
     id="path1082"
     style="stroke-width:0.887334" /><g
     id="g3060"
     transform="matrix(0.61741299,0,0,0.63218964,-96.0311,-96.594878)"
     style="fill:#ffffff;fill-opacity:1"><g
       id="g1667"
       transform="translate(165.44905,51.561204)"
       style="fill:#ffffff;fill-opacity:1"><g
         id="g1477"
         transform="matrix(1.4591911,0,0,1.6160171,107.51081,-93.784621)"
         style="fill:#ffffff;fill-opacity:1"><path
           d="m -42.605497,124.20813 -4.777494,-0.54113 c -0.141375,-0.021 -0.282796,0.021 -0.339319,0.065 l -2.03544,2.03477 c -0.141286,0.12976 -0.169525,0.30288 -0.113002,0.45457 0.05652,0.15144 -0.113136,0.2812 -0.310946,0.25986 l -1.668006,-0.28154 c -0.254422,-0.0434 -0.537084,0.021 -0.706735,0.19481 l -6.615029,6.49386 c -0.113137,0.12976 -0.33932,0.17313 -0.53709,0.10842 l -2.516036,-0.86587 c -0.226138,-0.0864 -0.480588,-0.0651 -0.678469,0.0434 l -1.272136,0.67103 c -0.197899,0.10807 -0.480588,0.12976 -0.706735,0.0434 l -0.621933,-0.23818 c -0.395798,-0.15144 -0.876359,0.021 -0.989442,0.34625 l -0.452309,1.53687 c -0.113091,0.36793 0.08481,0.73598 0.508855,0.93075 l 0.961162,0.45464 3.081392,1.45027 1.498283,0.71429 c 0.424038,0.19481 0.961212,0.15145 1.328646,-0.0864 l 2.516014,-1.68845 c 0.197899,-0.12976 0.508832,-0.17313 0.734993,-0.0651 l 0.763245,0.30324 c 0.254512,0.10807 0.565458,0.065 0.763362,-0.0867 l 1.272078,-0.90907 c 0.197899,-0.15144 0.508827,-0.17313 0.734988,-0.0867 l 1.894166,0.6711 c 0.282662,0.10807 0.621852,0.0434 0.819756,-0.15144 l 0.876382,-0.86581 6.643291,-6.51555 c 0.311036,-0.30288 0.113136,-0.75759 -0.395709,-0.84419 l -1.470097,-0.25986 c -0.310946,-0.0434 -0.452318,-0.34625 -0.226184,-0.51952 l 2.289858,-2.18625 c 0.226183,-0.25986 0.0849,-0.54116 -0.254423,-0.58446 z"
           fill="#e1e1e6"
           id="path127"
           style="fill:#ffffff;fill-opacity:1;stroke-width:1.04595" /><path
           d="m -64.5169,137.32481 c -0.141331,-0.0651 -0.282707,0.0434 -0.226139,0.15144 l 0.706736,1.4287 c 0.05652,0.10807 0.05652,0.21649 0.02815,0.32456 l -0.621932,1.86151 c -0.02815,0.1301 0.02815,0.25986 0.141331,0.32457 l 1.780985,1.06068 c 0.169615,0.0867 0.395754,0.0867 0.537125,-0.021 l 1.865788,-1.25546 c 0.113092,-0.0651 0.254423,-0.10808 0.367559,-0.12976 l 2.120207,-0.17313 c 0.141286,-0.021 0.197899,-0.17312 0.05652,-0.23818 z"
           fill="#e1e1e6"
           id="path129"
           style="fill:#ffffff;fill-opacity:1;stroke-width:1.04595" /><path
           d="m -65.138748,142.1325 c -0.113091,-0.065 -0.282706,-0.0867 -0.424037,-0.0434 l -1.498283,0.56282 c -0.08481,0.021 -0.141376,0.0864 -0.1979,0.15144 l -3.194461,6.0393 c 0,0.021 0,0.021 0,0.0434 0.02815,0.021 0.05652,0.0434 0.113092,0.0434 l 0.735002,-0.2165 c 0.02815,0 0.05652,0 0.08481,0 0.02815,0.021 0.05652,0.0651 0.02815,0.0864 l -2.289835,2.87896 c -0.05652,0.065 0.05652,0.12976 0.113092,0.065 l 8.282994,-6.364 c 0.08481,-0.0651 0.113092,-0.12976 0.141331,-0.2165 l 0.169615,-1.64511 c 0,-0.10807 -0.05657,-0.19481 -0.141331,-0.25986 z"
           fill="#e1e1e6"
           id="path131"
           style="fill:#ffffff;fill-opacity:1;stroke-width:1.04595" /></g><text
         xml:space="preserve"
         style="font-size:35.6306px;font-family:'Neon Zone';-inkscape-font-specification:'Neon Zone';fill:#ffffff;stroke-width:0.264583;fill-opacity:1"
         x="32.130699"
         y="148.52069"
         id="text515"><tspan
           sodipodi:role="line"
           id="tspan513"
           style="stroke-width:0.264583;fill:#ffffff;fill-opacity:1"
           x="32.130699"
           y="148.52069">acos lab</tspan></text></g></g></svg>
